<?xml version="1.0" encoding="UTF-8"?>
<svg height="128px" viewBox="0 0 128 128" width="128px" xmlns="http://www.w3.org/2000/svg" xmlns:xlink="http://www.w3.org/1999/xlink">
    <filter id="a" height="100%" width="100%" x="0%" y="0%">
        <feColorMatrix color-interpolation-filters="sRGB" values="0 0 0 0 1 0 0 0 0 1 0 0 0 0 1 0 0 0 1 0"/>
    </filter>
    <clipPath id="b">
        <rect height="128" width="128"/>
    </clipPath>
    <clipPath id="c">
        <rect height="128" width="128"/>
    </clipPath>
    <mask id="d">
        <g filter="url(#a)">
            <g clip-path="url(#c)" filter="url(#a)">
                <g clip-path="url(#b)">
                    <path d="m 29.757812 43.628906 c -5.402343 0 -9.78125 4.402344 -9.78125 9.78125 v 39.132813 c 0 5.378906 4.378907 9.78125 9.78125 9.78125 h 68.484376 c 5.402343 0 9.78125 -4.402344 9.78125 -9.78125 v -39.132813 c 0 -5.378906 -4.378907 -9.78125 -9.78125 -9.78125 z m 0 0" fill="#f1c40f"/>
                    <path d="m 29.757812 58.300781 c -5.402343 0 -9.78125 4.402344 -9.78125 9.785157 v 39.128906 c 0 5.382812 4.378907 9.785156 9.78125 9.785156 h 68.484376 c 5.402343 0 9.78125 -4.402344 9.78125 -9.785156 v -39.128906 c 0 -5.382813 -4.378907 -9.785157 -9.78125 -9.785157 z m 0 0" fill="#f39c12"/>
                    <path d="m 64 4.496094 c -18.910156 0 -34.242188 15.164062 -34.242188 34.238281 h 14.675782 c 0 -10.757813 8.761718 -19.5625 19.566406 -19.5625 s 19.566406 8.804687 19.566406 19.5625 h 14.675782 c 0 -19.074219 -15.332032 -34.238281 -34.242188 -34.238281 z m 0 0" fill="#bdc3c7"/>
                    <path d="m 29.757812 68.085938 v 4.890624 h 68.484376 v -4.890624 z m 0 9.78125 v 4.890624 h 68.484376 v -4.890624 z m 0 9.785156 v 4.890625 h 68.484376 v -4.890625 z m 0 9.78125 v 4.890625 h 68.484376 v -4.890625 z m 0 0" fill="#e67e22"/>
                    <path d="m 29.757812 43.628906 v 4.890625 c 0 2.445313 3.285157 4.890625 7.339844 4.890625 c 4.050782 0 7.335938 -2.445312 7.335938 -4.890625 v -4.890625 c 0 2.445313 -3.285156 4.890625 -7.335938 4.890625 c -4.054687 0 -7.339844 -2.445312 -7.339844 -4.890625 z m 0 0" fill="#7f8c8d"/>
                    <path d="m 83.566406 43.628906 v 4.890625 c 0 2.445313 3.285156 4.890625 7.335938 4.890625 c 4.050781 0 7.339844 -2.445312 7.339844 -4.890625 v -4.890625 c 0 2.445313 -3.289063 4.890625 -7.339844 4.890625 c -4.050782 0 -7.335938 -2.445312 -7.335938 -4.890625 z m 0 0" fill="#7f8c8d"/>
                    <path d="m 64 11.527344 c -1.71875 0 -3.417969 0.164062 -5.042969 0.457031 c -1.207031 0.21875 -2.382812 0.554687 -3.515625 0.917969 c -1.0625 0.34375 -2.070312 0.765625 -3.058594 1.222656 c -0.519531 0.242188 -1.03125 0.492188 -1.527343 0.765625 c -0.648438 0.351563 -1.230469 0.820313 -1.835938 1.222656 c -0.566406 0.375 -1.152343 0.65625 -1.679687 1.070313 c -0.6875 0.535156 -1.371094 1.082031 -1.988282 1.679687 c -0.179687 0.179688 -0.285156 0.429688 -0.457031 0.613281 c -0.824219 0.851563 -1.621093 1.640626 -2.292969 2.597657 c -0.6875 0.976562 -1.324218 1.988281 -1.835937 3.058593 c -0.019531 0.039063 0.019531 0.109376 0 0.152344 c -0.542969 1.152344 -1.054687 2.425782 -1.375 3.667969 c -1.238281 2.859375 -4.609375 4.890625 -8.5625 4.890625 c -0.292969 0 -0.40625 0.007812 -0.609375 0 c -0.050781 0 -0.082031 0.007812 -0.152344 0 l -0.308594 4.890625 v 9.785156 h 14.675782 v -9.785156 c 0 -1.347656 0.199218 -2.699219 0.460937 -3.972656 c 1.824219 -8.914063 9.648438 -15.589844 19.105469 -15.589844 c 10.804688 0 19.566406 8.757813 19.566406 19.5625 v 9.785156 h 14.675782 v -9.785156 l -0.304688 -4.890625 c -0.074219 0.007812 -0.101562 0 -0.15625 0 h -0.613281 c -3.945313 0 -7.320313 -2.03125 -8.558594 -4.890625 c -0.316406 -1.242187 -0.832031 -2.515625 -1.375 -3.667969 c -0.019531 -0.042968 0.019531 -0.113281 0 -0.152344 c -0.511719 -1.070312 -1.148437 -2.082031 -1.835937 -3.058593 c -0.671876 -0.957031 -1.464844 -1.746094 -2.292969 -2.597657 c -0.175781 -0.1875 -0.269531 -0.433593 -0.460938 -0.613281 c -0.613281 -0.597656 -1.292969 -1.144531 -1.984375 -1.679687 c -0.507812 -0.398438 -1.132812 -0.707032 -1.683594 -1.070313 c -0.59375 -0.394531 -1.191406 -0.875 -1.828124 -1.222656 c -0.496094 -0.269531 -1.015626 -0.527344 -1.53125 -0.765625 c -0.988282 -0.457031 -1.996094 -0.878906 -3.058594 -1.222656 c -1.132813 -0.363282 -2.308594 -0.699219 -3.515625 -0.917969 c -1.625 -0.292969 -3.324219 -0.457031 -5.042969 -0.457031 z m 0 0" fill="#95a5a6"/>
                </g>
            </g>
        </g>
    </mask>
    <mask id="e">
        <g filter="url(#a)">
            <rect fill-opacity="0.8" height="184.32" width="184.32" x="-28.16" y="-28.16"/>
        </g>
    </mask>
    <linearGradient id="f" gradientTransform="matrix(0 0.37 -0.98462 0 295.38501 -30.360001)" gradientUnits="userSpaceOnUse" x1="300" x2="428" y1="235" y2="235">
        <stop offset="0" stop-color="#f9f06b"/>
        <stop offset="1" stop-color="#f5c211"/>
    </linearGradient>
    <clipPath id="g">
        <rect height="128" width="128"/>
    </clipPath>
    <clipPath id="h">
        <rect height="128" width="128"/>
    </clipPath>
    <path d="m 29.757812 43.628906 c -5.402343 0 -9.78125 4.402344 -9.78125 9.78125 v 39.132813 c 0 5.378906 4.378907 9.78125 9.78125 9.78125 h 68.484376 c 5.402343 0 9.78125 -4.402344 9.78125 -9.78125 v -39.132813 c 0 -5.378906 -4.378907 -9.78125 -9.78125 -9.78125 z m 0 0" fill="#f1c40f"/>
    <path d="m 29.757812 58.300781 c -5.402343 0 -9.78125 4.402344 -9.78125 9.785157 v 39.128906 c 0 5.382812 4.378907 9.785156 9.78125 9.785156 h 68.484376 c 5.402343 0 9.78125 -4.402344 9.78125 -9.785156 v -39.128906 c 0 -5.382813 -4.378907 -9.785157 -9.78125 -9.785157 z m 0 0" fill="#f39c12"/>
    <path d="m 64 4.496094 c -18.910156 0 -34.242188 15.164062 -34.242188 34.238281 h 14.675782 c 0 -10.757813 8.761718 -19.5625 19.566406 -19.5625 s 19.566406 8.804687 19.566406 19.5625 h 14.675782 c 0 -19.074219 -15.332032 -34.238281 -34.242188 -34.238281 z m 0 0" fill="#bdc3c7"/>
    <path d="m 29.757812 68.085938 v 4.890624 h 68.484376 v -4.890624 z m 0 9.78125 v 4.890624 h 68.484376 v -4.890624 z m 0 9.785156 v 4.890625 h 68.484376 v -4.890625 z m 0 9.78125 v 4.890625 h 68.484376 v -4.890625 z m 0 0" fill="#e67e22"/>
    <path d="m 29.757812 43.628906 v 4.890625 c 0 2.445313 3.285157 4.890625 7.339844 4.890625 c 4.050782 0 7.335938 -2.445312 7.335938 -4.890625 v -4.890625 c 0 2.445313 -3.285156 4.890625 -7.335938 4.890625 c -4.054687 0 -7.339844 -2.445312 -7.339844 -4.890625 z m 0 0" fill="#7f8c8d"/>
    <path d="m 83.566406 43.628906 v 4.890625 c 0 2.445313 3.285156 4.890625 7.335938 4.890625 c 4.050781 0 7.339844 -2.445312 7.339844 -4.890625 v -4.890625 c 0 2.445313 -3.289063 4.890625 -7.339844 4.890625 c -4.050782 0 -7.335938 -2.445312 -7.335938 -4.890625 z m 0 0" fill="#7f8c8d"/>
    <path d="m 64 11.527344 c -1.71875 0 -3.417969 0.164062 -5.042969 0.457031 c -1.207031 0.21875 -2.382812 0.554687 -3.515625 0.917969 c -1.0625 0.34375 -2.070312 0.765625 -3.058594 1.222656 c -0.519531 0.242188 -1.03125 0.492188 -1.527343 0.765625 c -0.648438 0.351563 -1.230469 0.820313 -1.835938 1.222656 c -0.566406 0.375 -1.152343 0.65625 -1.679687 1.070313 c -0.6875 0.535156 -1.371094 1.082031 -1.988282 1.679687 c -0.179687 0.179688 -0.285156 0.429688 -0.457031 0.613281 c -0.824219 0.851563 -1.621093 1.640626 -2.292969 2.597657 c -0.6875 0.976562 -1.324218 1.988281 -1.835937 3.058593 c -0.019531 0.039063 0.019531 0.109376 0 0.152344 c -0.542969 1.152344 -1.054687 2.425782 -1.375 3.667969 c -1.238281 2.859375 -4.609375 4.890625 -8.5625 4.890625 c -0.292969 0 -0.40625 0.007812 -0.609375 0 c -0.050781 0 -0.082031 0.007812 -0.152344 0 l -0.308594 4.890625 v 9.785156 h 14.675782 v -9.785156 c 0 -1.347656 0.199218 -2.699219 0.460937 -3.972656 c 1.824219 -8.914063 9.648438 -15.589844 19.105469 -15.589844 c 10.804688 0 19.566406 8.757813 19.566406 19.5625 v 9.785156 h 14.675782 v -9.785156 l -0.304688 -4.890625 c -0.074219 0.007812 -0.101562 0 -0.15625 0 h -0.613281 c -3.945313 0 -7.320313 -2.03125 -8.558594 -4.890625 c -0.316406 -1.242187 -0.832031 -2.515625 -1.375 -3.667969 c -0.019531 -0.042968 0.019531 -0.113281 0 -0.152344 c -0.511719 -1.070312 -1.148437 -2.082031 -1.835937 -3.058593 c -0.671876 -0.957031 -1.464844 -1.746094 -2.292969 -2.597657 c -0.175781 -0.1875 -0.269531 -0.433593 -0.460938 -0.613281 c -0.613281 -0.597656 -1.292969 -1.144531 -1.984375 -1.679687 c -0.507812 -0.398438 -1.132812 -0.707032 -1.683594 -1.070313 c -0.59375 -0.394531 -1.191406 -0.875 -1.828124 -1.222656 c -0.496094 -0.269531 -1.015626 -0.527344 -1.53125 -0.765625 c -0.988282 -0.457031 -1.996094 -0.878906 -3.058594 -1.222656 c -1.132813 -0.363282 -2.308594 -0.699219 -3.515625 -0.917969 c -1.625 -0.292969 -3.324219 -0.457031 -5.042969 -0.457031 z m 0 0" fill="#95a5a6"/>
    <g mask="url(#d)">
        <g clip-path="url(#h)">
            <g mask="url(#e)">
                <g clip-path="url(#g)">
                    <path d="m 128 80.640625 v 47.359375 h -128 v -47.359375 z m 0 0" fill="url(#f)"/>
                    <path d="m 13.308594 80.640625 l 47.355468 47.359375 h 21.214844 l -47.359375 -47.359375 z m 42.421875 0 l 47.363281 47.359375 h 21.214844 l -47.363282 -47.359375 z m 42.429687 0 l 29.839844 29.839844 v -21.210938 l -8.628906 -8.628906 z m -98.160156 7.90625 v 21.214844 l 18.238281 18.238281 h 21.214844 z m 0 0"/>
                </g>
            </g>
        </g>
    </g>
</svg>
