<?xml version="1.0" encoding="UTF-8"?>
<svg height="16px" viewBox="0 0 16 16" width="16px" xmlns="http://www.w3.org/2000/svg">
    <g fill="#241f31">
        <path d="m 2.398438 6.398438 c -0.882813 0 -1.597657 0.722656 -1.597657 1.601562 v 6.398438 c 0 0.882812 0.714844 1.601562 1.597657 1.601562 h 11.203124 c 0.882813 0 1.597657 -0.71875 1.597657 -1.601562 v -6.398438 c 0 -0.878906 -0.714844 -1.601562 -1.597657 -1.601562 z m 0 0"/>
        <path d="m 8 0 c -3.09375 0 -5.601562 2.480469 -5.601562 5.601562 h 2.402343 c 0 -1.761718 1.433594 -3.203124 3.199219 -3.203124 s 3.199219 1.441406 3.199219 3.203124 h 2.402343 c 0 -3.121093 -2.507812 -5.601562 -5.601562 -5.601562 z m 0 0"/>
        <path d="m 8 1.148438 c -0.28125 0 -0.558594 0.027343 -0.824219 0.078124 c -0.199219 0.035157 -0.390625 0.089844 -0.574219 0.148438 c -0.175781 0.054688 -0.339843 0.125 -0.5 0.199219 c -0.085937 0.039062 -0.171874 0.082031 -0.25 0.125 c -0.105468 0.058593 -0.203124 0.136719 -0.300781 0.199219 c -0.09375 0.0625 -0.1875 0.109374 -0.277343 0.175781 c -0.109376 0.089843 -0.222657 0.179687 -0.324219 0.277343 c -0.027344 0.027344 -0.046875 0.070313 -0.074219 0.097657 c -0.132812 0.140625 -0.265625 0.269531 -0.375 0.425781 c -0.113281 0.160156 -0.214844 0.324219 -0.300781 0.5 c -0.003907 0.007812 0.003906 0.019531 0 0.023438 c -0.089844 0.191406 -0.171875 0.398437 -0.222657 0.601562 c -0.203124 0.46875 -0.753906 0.800781 -1.402343 0.800781 c -0.046875 0 -0.066407 0 -0.097657 0 c -0.011718 0 -0.015624 0 -0.027343 0 l -0.050781 0.800781 v 1.597657 h 2.402343 v -1.597657 c 0 -0.222656 0.03125 -0.441406 0.074219 -0.652343 c 0.296875 -1.457031 1.578125 -2.550781 3.125 -2.550781 c 1.765625 0 3.199219 1.433593 3.199219 3.203124 v 1.597657 h 2.402343 v -1.597657 l -0.050781 -0.800781 c -0.011719 0 -0.015625 0 -0.027343 0 h -0.097657 c -0.648437 0 -1.199219 -0.332031 -1.402343 -0.800781 c -0.050782 -0.203125 -0.132813 -0.410156 -0.222657 -0.601562 c -0.003906 -0.007813 0.003907 -0.015626 0 -0.023438 c -0.085937 -0.175781 -0.1875 -0.339844 -0.300781 -0.5 c -0.109375 -0.15625 -0.238281 -0.285156 -0.375 -0.425781 c -0.027344 -0.03125 -0.042969 -0.070313 -0.074219 -0.097657 c -0.101562 -0.097656 -0.214843 -0.1875 -0.324219 -0.277343 c -0.085937 -0.066407 -0.1875 -0.113281 -0.277343 -0.175781 c -0.097657 -0.0625 -0.195313 -0.140626 -0.296875 -0.199219 c -0.082032 -0.042969 -0.167969 -0.085938 -0.253906 -0.125 c -0.160157 -0.074219 -0.324219 -0.144531 -0.5 -0.199219 c -0.183594 -0.058594 -0.375 -0.113281 -0.574219 -0.148438 c -0.265625 -0.050781 -0.542969 -0.078124 -0.824219 -0.078124 z m 0 0"/>
    </g>
</svg>
